<svg width="34.000000" height="34.000000" viewBox="0 0 34 34" fill="none" xmlns="http://www.w3.org/2000/svg" xmlns:xlink="http://www.w3.org/1999/xlink">
	<desc>
			Created with Pixso.
	</desc>
	<defs>
		<clipPath id="clip21_2213">
			<rect id="Quick View" width="24.000000" height="24.000000" transform="translate(5.000000 5.000000)" fill="white" fill-opacity="0"/>
		</clipPath>
	</defs>
	<circle id="Ellipse 13" cx="17.000000" cy="17.000000" r="17.000000" fill="#FFFFFF" fill-opacity="1.000000"/>
	<rect id="Quick View" width="24.000000" height="24.000000" transform="translate(5.000000 5.000000)" fill="#FFFFFF" fill-opacity="0"/>
	<g clip-path="url(#clip21_2213)">
		<path id="Vector" d="M26.25 18.03C24.76 19.98 21.18 24 17 24C12.81 24 9.23 19.98 7.74 18.03C7.51 17.74 7.38 17.37 7.38 17C7.38 16.62 7.51 16.25 7.74 15.96C9.23 14.01 12.81 10 17 10C21.18 10 24.76 14.01 26.25 15.96C26.73 16.58 26.73 17.41 26.25 18.03Z" stroke="#000000" stroke-opacity="1.000000" stroke-width="1.500000" stroke-linejoin="round"/>
		<path id="Vector" d="M17 20C15.34 20 14 18.65 14 17C14 15.34 15.34 14 17 14C18.65 14 20 15.34 20 17C20 18.65 18.65 20 17 20Z" stroke="#000000" stroke-opacity="1.000000" stroke-width="1.500000" stroke-linejoin="round"/>
	</g>
</svg>
