<svg width="20.000000" height="20.000000" viewBox="0 0 20 20" fill="none" xmlns="http://www.w3.org/2000/svg" xmlns:xlink="http://www.w3.org/1999/xlink">
	<desc>
			Created with Pixso.
	</desc>
	<defs>
		<clipPath id="clip7_5006">
			<rect id="icon-copyright" width="20.000000" height="20.000000" transform="translate(-0.500000 0.000000)" fill="white" fill-opacity="0"/>
		</clipPath>
	</defs>
	<rect id="icon-copyright" width="20.000000" height="20.000000" transform="translate(-0.500000 0.000000)" fill="#FFFFFF" fill-opacity="0"/>
	<g clip-path="url(#clip7_5006)">
		<path id="Vector" d="M9.5 18.33C4.89 18.33 1.16 14.6 1.16 10C1.16 5.39 4.89 1.66 9.5 1.66C14.1 1.66 17.83 5.39 17.83 10C17.83 14.6 14.1 18.33 9.5 18.33Z" stroke="#FFFFFF" stroke-opacity="1.000000" stroke-width="1.500000" stroke-linejoin="round"/>
		<path id="Vector" d="M12 8.14C12 8.14 10.97 6.66 9.25 6.66C7.53 6.66 6.16 8.14 6.16 10C6.16 11.85 7.53 13.33 9.25 13.33C10.97 13.33 12 11.85 12 11.85" stroke="#FFFFFF" stroke-opacity="1.000000" stroke-width="1.500000" stroke-linejoin="round" stroke-linecap="round"/>
	</g>
</svg>
